<svg width="512" height="512" viewBox="0 0 512 512" fill="none" xmlns="http://www.w3.org/2000/svg">
<rect width="512" height="512" fill="white"/>
<rect width="512" height="512" fill="#240A36"/>
<path d="M84.0019 210.316C116.826 81.4578 193.727 19.5635 316.115 10C288.437 93.2335 281.902 158.098 287.98 245.46C294.058 332.821 354.167 425.874 431 476.233C181.386 569.819 51.1779 339.175 84.0019 210.316Z" fill="white" stroke="white"/>
<path d="M393.004 142.336C345.973 142.336 284.066 126.465 262.02 97.0558C261.233 96.1002 260.244 95.3306 259.125 94.8023C258.005 94.274 256.783 94 255.545 94C254.307 94 253.084 94.274 251.965 94.8023C250.845 95.3306 249.857 96.1002 249.07 97.0558C227.024 126.465 165.116 142.336 118.086 142.336C115.941 142.336 113.885 143.188 112.368 144.705C110.852 146.221 110 148.278 110 150.422V255.538C110 344.45 187.21 398.05 253.318 416.938C254.773 417.36 256.317 417.36 257.772 416.938C323.88 398.05 401.09 344.45 401.09 255.538V150.422C401.09 148.278 400.238 146.221 398.721 144.705C397.205 143.188 395.148 142.336 393.004 142.336ZM384.918 255.538C384.918 334.469 315.746 382.858 255.545 400.751C195.343 382.858 126.172 334.469 126.172 255.538V158.366C172.902 156.787 228.176 141.72 255.545 114.194C282.914 141.72 338.188 156.787 384.918 158.366V255.538Z" fill="white"/>
<path d="M237.004 249.821C236.258 249.049 235.366 248.433 234.379 248.009C233.393 247.585 232.332 247.362 231.258 247.353C230.185 247.344 229.12 247.548 228.126 247.955C227.132 248.361 226.23 248.962 225.47 249.721C224.711 250.48 224.111 251.383 223.704 252.377C223.298 253.37 223.093 254.435 223.102 255.509C223.112 256.582 223.335 257.643 223.759 258.63C224.182 259.616 224.798 260.509 225.571 261.255L241.742 277.426C242.493 278.177 243.384 278.773 244.365 279.18C245.346 279.586 246.397 279.795 247.459 279.795C248.521 279.795 249.572 279.586 250.553 279.18C251.534 278.773 252.425 278.177 253.176 277.426L285.519 245.083C286.291 244.337 286.907 243.445 287.331 242.458C287.755 241.472 287.978 240.411 287.987 239.337C287.996 238.264 287.792 237.199 287.385 236.205C286.979 235.211 286.378 234.309 285.619 233.549C284.86 232.79 283.957 232.19 282.963 231.783C281.97 231.377 280.905 231.172 279.831 231.181C278.758 231.191 277.697 231.414 276.71 231.838C275.724 232.261 274.831 232.877 274.085 233.65L247.459 260.273L237.004 249.821Z" fill="white"/>
<path d="M174.687 255.538C174.687 271.53 179.429 287.163 188.314 300.46C197.198 313.757 209.827 324.121 224.602 330.241C239.377 336.361 255.635 337.962 271.319 334.842C287.004 331.722 301.412 324.021 312.72 312.713C324.028 301.405 331.729 286.997 334.849 271.312C337.969 255.627 336.368 239.37 330.248 224.595C324.128 209.82 313.764 197.191 300.467 188.307C287.17 179.422 271.537 174.68 255.545 174.68C234.108 174.705 213.555 183.232 198.397 198.39C183.239 213.548 174.712 234.1 174.687 255.538ZM320.231 255.538C320.231 268.332 316.438 280.838 309.33 291.476C302.222 302.113 292.119 310.404 280.299 315.3C268.479 320.196 255.473 321.477 242.925 318.981C230.377 316.485 218.851 310.325 209.804 301.278C200.758 292.231 194.597 280.705 192.101 268.157C189.605 255.609 190.886 242.603 195.782 230.783C200.678 218.963 208.969 208.861 219.607 201.753C230.245 194.645 242.751 190.851 255.545 190.851C272.696 190.868 289.139 197.689 301.266 209.816C313.394 221.943 320.214 238.387 320.231 255.538Z" fill="white"/>
<mask id="mask0" mask-type="alpha" maskUnits="userSpaceOnUse" x="78" y="9" width="355" height="490">
<path d="M84.0019 210.316C116.826 81.4578 193.727 19.5635 316.115 10C288.437 93.2335 281.902 158.098 287.98 245.46C294.058 332.821 354.167 425.874 431 476.233C181.386 569.819 51.1779 339.175 84.0019 210.316Z" fill="white" stroke="white"/>
</mask>
<g mask="url(#mask0)">
<path d="M393.004 142.336C345.973 142.336 284.066 126.465 262.02 97.0558C261.233 96.1002 260.244 95.3306 259.125 94.8023C258.005 94.274 256.783 94 255.545 94C254.307 94 253.084 94.274 251.965 94.8023C250.845 95.3306 249.857 96.1002 249.07 97.0558C227.024 126.465 165.116 142.336 118.086 142.336C115.941 142.336 113.885 143.188 112.368 144.705C110.852 146.221 110 148.278 110 150.422V255.538C110 344.45 187.21 398.05 253.318 416.938C254.773 417.36 256.317 417.36 257.772 416.938C323.88 398.05 401.09 344.45 401.09 255.538V150.422C401.09 148.278 400.238 146.221 398.721 144.705C397.205 143.188 395.148 142.336 393.004 142.336ZM384.918 255.538C384.918 334.469 315.746 382.858 255.545 400.751C195.343 382.858 126.172 334.469 126.172 255.538V158.366C172.902 156.787 228.176 141.72 255.545 114.194C282.914 141.72 338.188 156.787 384.918 158.366V255.538Z" fill="#240A36"/>
<path d="M237.004 249.821C236.258 249.049 235.366 248.433 234.379 248.009C233.393 247.585 232.332 247.362 231.258 247.353C230.184 247.344 229.12 247.548 228.126 247.955C227.132 248.361 226.23 248.962 225.47 249.721C224.711 250.48 224.111 251.383 223.704 252.377C223.298 253.37 223.093 254.435 223.102 255.509C223.112 256.582 223.335 257.643 223.759 258.63C224.182 259.616 224.798 260.509 225.571 261.255L241.742 277.426C242.493 278.177 243.384 278.773 244.365 279.18C245.346 279.586 246.397 279.795 247.459 279.795C248.521 279.795 249.572 279.586 250.553 279.18C251.534 278.773 252.425 278.177 253.176 277.426L285.519 245.083C286.291 244.337 286.907 243.445 287.331 242.458C287.755 241.472 287.978 240.411 287.987 239.337C287.996 238.264 287.792 237.199 287.385 236.205C286.979 235.211 286.378 234.309 285.619 233.549C284.86 232.79 283.957 232.19 282.963 231.783C281.97 231.377 280.905 231.172 279.831 231.181C278.758 231.191 277.697 231.414 276.71 231.838C275.724 232.261 274.831 232.877 274.085 233.65L247.459 260.273L237.004 249.821Z" fill="#240A36"/>
<path d="M174.687 255.538C174.687 271.53 179.429 287.163 188.314 300.46C197.198 313.757 209.827 324.121 224.602 330.241C239.377 336.361 255.635 337.962 271.319 334.842C287.004 331.722 301.412 324.021 312.72 312.713C324.028 301.405 331.729 286.997 334.849 271.312C337.969 255.627 336.368 239.37 330.248 224.595C324.128 209.82 313.764 197.191 300.467 188.307C287.17 179.422 271.537 174.68 255.545 174.68C234.108 174.705 213.555 183.232 198.397 198.39C183.239 213.548 174.712 234.1 174.687 255.538ZM320.231 255.538C320.231 268.332 316.438 280.838 309.33 291.476C302.222 302.113 292.119 310.404 280.299 315.3C268.479 320.196 255.473 321.477 242.925 318.981C230.377 316.485 218.851 310.325 209.804 301.278C200.758 292.231 194.597 280.705 192.101 268.157C189.605 255.609 190.886 242.603 195.782 230.783C200.678 218.963 208.969 208.861 219.607 201.753C230.245 194.645 242.751 190.851 255.545 190.851C272.696 190.868 289.139 197.689 301.266 209.816C313.394 221.944 320.214 238.387 320.231 255.538Z" fill="#240A36"/>
</g>
</svg>
